<?xml version="1.0" encoding="utf-8"?>
<!-- Generator: Adobe Illustrator 19.2.1, SVG Export Plug-In . SVG Version: 6.00 Build 0)  -->
<svg version="1.1" id="Layer_1" xmlns="http://www.w3.org/2000/svg" xmlns:xlink="http://www.w3.org/1999/xlink" x="0px" y="0px"
	 viewBox="0 0 100 100" style="enable-background:new 0 0 100 100;" xml:space="preserve">
<style type="text/css">
	.st0{fill:none;stroke:#807E7E;stroke-width:2;stroke-linecap:round;stroke-linejoin:round;}
</style>
<path class="st0" d="M67,67.3H28.7c-2,0-3.7-1.7-3.7-3.7V45.4c0-2,1.6-3.7,3.7-3.7H67c2,0,3.7,1.7,3.7,3.7v18.2
	C70.6,65.7,69,67.3,67,67.3z M39.6,60.9H56 M61.5,48.2h1.8 M54.2,48.2H56 M46.9,48.2h1.8 M39.6,48.2h1.8 M32.3,48.2h1.8 M61.5,54.6
	h1.8 M54.2,54.6H56 M46.9,54.6h1.8 M39.6,54.6h1.8 M32.3,54.6h1.8 M56.9,29c0,2.5-2.1,4.6-4.6,4.6h-11c-2.5,0-4.5,2-4.5,4.5v2.8"/>
</svg>
