<?xml version="1.0" encoding="utf-8"?>
<!-- Generator: Adobe Illustrator 19.2.1, SVG Export Plug-In . SVG Version: 6.00 Build 0)  -->
<svg version="1.1" id="Layer_1" xmlns="http://www.w3.org/2000/svg" xmlns:xlink="http://www.w3.org/1999/xlink" x="0px" y="0px"
	 viewBox="0 0 100 100" style="enable-background:new 0 0 100 100;" xml:space="preserve">
<style type="text/css">
	.st0{fill:none;stroke:#807E7E;stroke-width:2;stroke-linecap:round;stroke-linejoin:round;}
</style>
<path class="st0" d="M61.6,36.4c0,0,4,1.6,4.5,3.1c0.6,1.7,0.9,3.5,0.9,5.4c0,11.7-4.5,16.8-16.8,16.8c-11.9,0-16.8-5-16.8-16.8
	c0-1.9,0.3-3.7,0.9-5.4c1.1-3.3,8.5-4.6,16-4.6c3.7,0,6.1,0.5,6.1,0.5 M34.8,39.4c0.9,2.4,7.8,3.8,15.3,3.8s14.5-1,15.3-3.8
	 M34.8,55.1c0,0-3.8,1.1-3.8,4.9c0,5.3,6.5,9.2,19.1,9.2s19.1-3.9,19.1-9.2c0-4.1-3.8-4.9-3.8-4.9 M59.3,41.7l2.3-7.4
	c0.7-2.5-1-3.3-1.9-3.3c-1.7,0-2.5,1.5-2.7,2.3l-2.8,9.2"/>
</svg>
