<?xml version="1.0" encoding="utf-8"?>
<!-- Generator: Adobe Illustrator 19.2.1, SVG Export Plug-In . SVG Version: 6.00 Build 0)  -->
<svg version="1.1" id="Layer_1" xmlns="http://www.w3.org/2000/svg" xmlns:xlink="http://www.w3.org/1999/xlink" x="0px" y="0px"
	 viewBox="0 0 507 219" style="enable-background:new 0 0 507 219;" xml:space="preserve">
<style type="text/css">
	.st0{fill:#6B50CD;}
	.st1{fill:#36C14A;}
	.st2{fill:#595959;}
	.st3{font-family:'Montserrat-Light';}
	.st4{font-size:48px;}
</style>
<path class="st0" d="M189.6,90.4L189.6,90.4c1.2-1.7,1.9-3.8,1.9-6.1c0-4.9-3.3-9-7.7-10.3l0,0l0,0c-0.8-0.2-1.6-0.4-2.5-0.4
	l-62.7-10.4l0,0c-0.8-0.2-1.6-0.3-2.5-0.3c-5.9,0-10.7,4.8-10.7,10.7c0,0.8,0.1,1.5,0.2,2.3l0,0l0,0c0.2,0.7,0.4,1.4,0.7,2
	l20.7,62.8c1.1,4.7,5.3,8.1,10.4,8.1c3.7,0,6.9-1.9,8.8-4.7l0,0l42.4-52.7C189,91.2,189.4,90.8,189.6,90.4L189.6,90.4z"/>
<path class="st1" d="M189.2,144.9L189.2,144.9c0.7,0,1.5-0.1,2.2-0.5c1.5-0.9,2.1-2.6,1.7-4.2l0,0l0,0c-0.1-0.3-0.2-0.6-0.3-0.8
	l-8.3-20.7l0,0c-0.1-0.3-0.2-0.5-0.4-0.8c-1.1-1.8-3.4-2.3-5.2-1.3c-0.2,0.1-0.4,0.3-0.6,0.5l0,0l0,0c-0.2,0.2-0.3,0.4-0.5,0.6
	l-15.1,17.7c-1.2,1.2-1.5,3.1-0.6,4.6c0.7,1.1,1.8,1.7,3,1.8l0,0l23.6,3.1C188.8,144.9,189,144.9,189.2,144.9L189.2,144.9z"/>
<text transform="matrix(1 0 0 1 225 124)" class="st2 st3 st4">RESPO</text>
</svg>
