<?xml version="1.0" encoding="utf-8"?>
<!-- Generator: Adobe Illustrator 19.2.1, SVG Export Plug-In . SVG Version: 6.00 Build 0)  -->
<svg version="1.1" id="Layer_1" xmlns="http://www.w3.org/2000/svg" xmlns:xlink="http://www.w3.org/1999/xlink" x="0px" y="0px"
	 viewBox="0 0 507 219" style="enable-background:new 0 0 507 219;" xml:space="preserve">
<style type="text/css">
	.st0{fill:#6B50CD;}
	.st1{fill:#36C14A;}
	.st2{fill:#595959;}
</style>
<path class="st0" d="M189.6,90.4L189.6,90.4c1.2-1.7,1.9-3.8,1.9-6.1c0-4.9-3.3-9-7.7-10.3l0,0l0,0c-0.8-0.2-1.6-0.4-2.5-0.4
	l-62.7-10.4l0,0c-0.8-0.2-1.6-0.3-2.5-0.3c-5.9,0-10.7,4.8-10.7,10.7c0,0.8,0.1,1.5,0.2,2.3l0,0l0,0c0.2,0.7,0.4,1.4,0.7,2
	l20.7,62.8c1.1,4.7,5.3,8.1,10.4,8.1c3.7,0,6.9-1.9,8.8-4.7l0,0l42.4-52.7C189,91.2,189.4,90.8,189.6,90.4L189.6,90.4z"/>
<path class="st1" d="M189.2,144.9L189.2,144.9c0.7,0,1.5-0.1,2.2-0.5c1.5-0.9,2.1-2.6,1.7-4.2l0,0l0,0c-0.1-0.3-0.2-0.6-0.3-0.8
	l-8.3-20.7l0,0c-0.1-0.3-0.2-0.5-0.4-0.8c-1.1-1.8-3.4-2.3-5.2-1.3c-0.2,0.1-0.4,0.3-0.6,0.5l0,0l0,0c-0.2,0.2-0.3,0.4-0.5,0.6
	l-15.1,17.7c-1.2,1.2-1.5,3.1-0.6,4.6c0.7,1.1,1.8,1.7,3,1.8l0,0l23.6,3.1C188.8,144.9,189,144.9,189.2,144.9L189.2,144.9z"/>
<g>
	<path class="st2" d="M245.1,113.3c-0.7,0-1.5,0.1-2.3,0.1h-8.9V124h-3.8V90.4h12.8c8.4,0,13.2,4.1,13.2,11.3
		c0,5.6-2.7,9.3-7.5,10.9l7.9,11.4h-4.4L245.1,113.3z M242.9,109.7c6.1,0,9.6-2.7,9.6-7.9c0-5.1-3.5-7.7-9.6-7.7h-8.9v15.6H242.9z"
		/>
	<path class="st2" d="M268.6,94.1v11h16.9v3.7h-16.9v11.5h19.6v3.6h-23.4V90.4h22.8v3.7H268.6z"/>
	<path class="st2" d="M316.7,93.4L315,97c-3-2-6.6-2.8-9.3-2.8c-4.3,0-7.2,1.6-7.2,4.5c0,8.6,18.9,4.1,18.9,16.3
		c0,5.6-4.9,9.2-12.1,9.2c-4.9,0-9.7-2.1-12.9-5.1l1.7-3.5c3.1,3,7.4,4.8,11.2,4.8c4.8,0,7.9-2,7.9-5.2c0-8.8-18.9-4.1-18.9-16.2
		c0-5.3,4.7-8.7,11.6-8.7C309.9,90.3,313.9,91.5,316.7,93.4z"/>
	<path class="st2" d="M338,90.4c8.3,0,13.1,4.1,13.1,11.3c0,7.4-4.8,11.7-13.1,11.7h-8.8V124h-3.8V90.4H338z M329.2,109.7h8.6
		c6,0,9.6-2.7,9.6-7.9c0-5.1-3.5-7.7-9.6-7.7h-8.6V109.7z"/>
	<path class="st2" d="M389.5,107.2c0,9.5-7.8,17-17.6,17c-9.8,0-17.6-7.5-17.6-17c0-9.5,7.8-16.9,17.6-16.9
		C381.7,90.3,389.5,97.7,389.5,107.2z M358.2,107.2c0,7.4,6.2,13.3,13.7,13.3c7.5,0,13.6-5.9,13.6-13.3s-6.1-13.2-13.6-13.2
		C364.4,93.9,358.2,99.8,358.2,107.2z"/>
</g>
</svg>
