<?xml version="1.0" encoding="utf-8"?>
<!-- Generator: Adobe Illustrator 19.2.1, SVG Export Plug-In . SVG Version: 6.00 Build 0)  -->
<svg version="1.1" id="Layer_1" xmlns="http://www.w3.org/2000/svg" xmlns:xlink="http://www.w3.org/1999/xlink" x="0px" y="0px"
	 viewBox="0 0 425 163" style="enable-background:new 0 0 425 163;" xml:space="preserve">
<style type="text/css">
	.st0{fill:#FFFFFF;}
	.st1{fill:#46FF9D;}
	.st2{enable-background:new    ;}
</style>
<path class="st0" d="M141.4,62.2L141.4,62.2c1.4-2,2.2-4.5,2.2-7.2c0-5.7-3.8-10.5-9.1-12l0,0l0,0c-0.9-0.3-1.9-0.4-2.9-0.5L58,30.4
	l0,0c-1-0.3-1.9-0.4-3-0.4c-6.9,0-12.5,5.6-12.5,12.5c0,0.9,0.1,1.8,0.3,2.7l0,0l0,0c0.2,0.8,0.4,1.6,0.8,2.4L68,121.4
	c1.3,5.5,6.3,9.6,12.2,9.6c4.3,0,8.1-2.2,10.4-5.5l0,0l49.8-62C140.7,63.2,141,62.7,141.4,62.2L141.4,62.2z"/>
<path class="st1" d="M140.8,126.3L140.8,126.3c0.9,0.1,1.8-0.1,2.6-0.6c1.7-1,2.5-3.1,2-4.9l0,0l0,0c-0.1-0.3-0.2-0.6-0.4-1
	l-9.8-24.4l0,0c-0.1-0.3-0.2-0.6-0.4-1c-1.3-2.1-4-2.7-6.1-1.5c-0.3,0.2-0.5,0.4-0.8,0.6l0,0l0,0c-0.2,0.2-0.4,0.4-0.6,0.7
	L109.6,115c-1.4,1.4-1.7,3.6-0.6,5.4c0.8,1.3,2.1,2,3.5,2.1l0,0l27.7,3.7C140.4,126.2,140.6,126.3,140.8,126.3L140.8,126.3z"/>
<g class="st2">
	<path class="st0" d="M206.5,89.1c-0.8,0.1-1.7,0.1-2.7,0.1h-10.5v12.5h-4.5V62.2h15c9.9,0,15.6,4.9,15.6,13.3
		c0,6.5-3.2,10.9-8.9,12.8l9.2,13.4h-5.1L206.5,89.1z M203.9,84.9c7.2,0,11.2-3.2,11.2-9.3c0-6-4.1-9-11.2-9h-10.5v18.3H203.9z"/>
	<path class="st0" d="M234.2,66.5v13h19.9v4.3h-19.9v13.5h23v4.3h-27.5V62.2h26.8v4.3H234.2z"/>
	<path class="st0" d="M290.6,65.7l-1.9,4.2c-3.6-2.4-7.7-3.3-10.9-3.3c-5.1,0-8.4,1.9-8.4,5.2c0,10.2,22.2,4.9,22.2,19.2
		c0,6.6-5.8,10.8-14.3,10.8c-5.8,0-11.4-2.5-15.1-6l2-4.1c3.7,3.6,8.7,5.6,13.1,5.6c5.7,0,9.2-2.3,9.2-6.1
		c0.1-10.4-22.2-4.8-22.2-19c0-6.2,5.5-10.2,13.6-10.2C282.7,62,287.3,63.5,290.6,65.7z"/>
	<path class="st0" d="M315.6,62.2c9.8,0,15.4,4.9,15.4,13.3c0,8.7-5.6,13.8-15.4,13.8h-10.3v12.5h-4.5V62.2H315.6z M305.3,84.9h10.2
		c7.1,0,11.2-3.2,11.2-9.3c0-6-4.1-9-11.2-9h-10.2V84.9z"/>
	<path class="st0" d="M376.2,81.9c0,11.1-9.1,20-20.6,20c-11.6,0-20.7-8.9-20.7-20c0-11.2,9.1-19.9,20.7-19.9
		C367,62.1,376.2,70.8,376.2,81.9z M339.4,81.9c0,8.7,7.3,15.6,16.1,15.6s16-6.9,16-15.6c0-8.7-7.2-15.6-16-15.6
		S339.4,73.2,339.4,81.9z"/>
</g>
</svg>
