<?xml version="1.0" encoding="utf-8"?>
<!-- Generator: Adobe Illustrator 19.2.1, SVG Export Plug-In . SVG Version: 6.00 Build 0)  -->
<svg version="1.1" id="Layer_1" xmlns="http://www.w3.org/2000/svg" xmlns:xlink="http://www.w3.org/1999/xlink" x="0px" y="0px"
	 viewBox="0 0 425 163" style="enable-background:new 0 0 425 163;" xml:space="preserve">
<style type="text/css">
	.st0{fill:#FFFFFF;}
	.st1{fill:#46FF9D;}
	.st2{font-family:'Montserrat-Light';}
	.st3{font-size:56.3941px;}
</style>
<path class="st0" d="M141.4,62.2L141.4,62.2c1.4-2,2.2-4.5,2.2-7.2c0-5.7-3.8-10.5-9.1-12l0,0l0,0c-0.9-0.3-1.9-0.4-2.9-0.5L58,30.4
	l0,0C57,30.1,56.1,30,55,30c-6.9,0-12.5,5.6-12.5,12.5c0,0.9,0.1,1.8,0.3,2.7l0,0l0,0c0.2,0.8,0.4,1.6,0.8,2.4l24.4,73.8
	c1.3,5.5,6.3,9.6,12.2,9.6c4.3,0,8.1-2.2,10.4-5.5l0,0l49.8-62C140.7,63.2,141,62.7,141.4,62.2L141.4,62.2z"/>
<path class="st1" d="M140.8,126.3L140.8,126.3c0.9,0.1,1.8-0.1,2.6-0.6c1.7-1,2.5-3.1,2-4.9l0,0l0,0c-0.1-0.3-0.2-0.6-0.4-1
	l-9.8-24.4l0,0c-0.1-0.3-0.2-0.6-0.4-1c-1.3-2.1-4-2.7-6.1-1.5c-0.3,0.2-0.5,0.4-0.8,0.6l0,0l0,0c-0.2,0.2-0.4,0.4-0.6,0.7
	L109.6,115c-1.4,1.4-1.7,3.6-0.6,5.4c0.8,1.3,2.1,2,3.5,2.1l0,0l27.7,3.7C140.4,126.2,140.6,126.3,140.8,126.3L140.8,126.3z"/>
<text transform="matrix(1 0 0 1 182.8984 101.667)" class="st0 st2 st3">RESPO</text>
</svg>
