<?xml version="1.0" encoding="utf-8"?>
<!-- Generator: Adobe Illustrator 19.2.1, SVG Export Plug-In . SVG Version: 6.00 Build 0)  -->
<svg version="1.1" id="Layer_1" xmlns="http://www.w3.org/2000/svg" xmlns:xlink="http://www.w3.org/1999/xlink" x="0px" y="0px"
	 viewBox="0 0 50 50" style="enable-background:new 0 0 50 50;" xml:space="preserve">
<style type="text/css">
	.st0{fill:none;stroke:#000000;stroke-linecap:round;stroke-linejoin:round;}
</style>
<g>
	<path class="st0" d="M14.6,30c2.4,2.1,5.8,2.9,9.2,2.9c7.8,0,10.4-6.6,10.4-11.7c0-2.3-1.9-4.2-4.2-4.2s-4.2,1.9-4.2,4.2
		c-2.3,1.2-7.2-0.8-8.7-3.3c0,1.4,0.1,3.6,2.5,5.8c-1.2,0.1-3.3-0.4-3.3-0.4c0,1.6,1.7,4.8,5,5.8C20.1,30.3,16.4,30,14.6,30z"/>
	<polyline class="st0" points="34.2,19.6 35.4,18.3 33.7,18.8 	"/>
</g>
</svg>
